<svg xmlns="http://www.w3.org/2000/svg"
     height="115.7"
     width="90.5">
  <defs>
    <clipPath id="a">
      <path d="M0 916.676V0h1700.79v916.676z" />
    </clipPath>
    <clipPath id="b">
      <path d="M200.141 231.18C96.106 190.168 154.32 49.8 154.32 49.8s143.301 51.247 101.555 157.161l-55.734 24.219" />
    </clipPath>
    <clipPath id="c">
      <path d="M0 916.676V0h1700.79v916.676z" />
    </clipPath>
  </defs>
  <g clip-path="url(#a)"
     transform="matrix(.13333 0 0 -.13333 -5.4 116.7)">
    <!-- original background in red - useful for orientation -->
    <!-- <path class="original-background" d="M304.055 135.406l41.492-92.547 55.297 107.161 1255.946-.047c24.2 0 44 19.8 44 44v221.804c0 24.2-19.8 44-44 44H647.219c44.383 32.246 73.293 84.555 73.293 143.485 0 67.453-38.203 128.351-97.149 158.156-9.855 33.949-27.953 63.812-54.918 90.777-41.582 41.582-96.937 64.481-155.867 64.481-58.941 0-114.297-22.899-155.875-64.488-13.383-13.379-26.953-28.243-38.109-46.985-26.41-6.344-50.758-19.898-70.246-39.383-13.426-13.429-24.032-29.093-31.403-46.246C50.188 705.07 0 645.48 0 574.48c0-68.652 51.43-131.89 113.301-145.691l.308-.07-.976-2.457-7.606-19.375-90.382-230.336 103.406 40.672S60.031 127.684 132.125 0c0 0 144.336 27.805 171.93 135.406" fill="red" /> -->
    <!-- free form background option 1 -->
    <!-- <path class="background" d="M304.055 135.406l41.492-92.547 118 232-39 69 c12 20 32 60 40 85l 103 0c74.383 0.246 153.293 81.555 153.293 174.485 0 67.453-38.203 128.351-97.149 158.156-9.855 33.949-27.953 63.812-54.918 90.777-41.582 41.582-96.937 64.481-155.867 64.481-58.941 0-114.297-22.899-155.875-64.488-13.383-13.379-26.953-28.243-38.109-46.985-26.41-6.344-50.758-19.898-70.246-39.383-13.426-13.429-24.032-29.093-31.403-46.246C50.188 705.07 0 645.48 0 574.48c0-68.652 51.43-131.89 113.301-145.691l.308-.07-.976-2.457-7.606-19.375-90.382-230.336 103.406 40.672S60.031 127.684 132.125 0c0 0 144.336 27.805 171.93 135.406" fill="#0c0b0b" /> -->
    <!-- free form background option 2 -->
    <!-- <path class="background" d="M304.055 135.406l41.492-92.547 193 386 l29 0c74.383 0.246 153.293 81.555 153.293 174.485 0 67.453-38.203 128.351-97.149 158.156-9.855 33.949-27.953 63.812-54.918 90.777-41.582 41.582-96.937 64.481-155.867 64.481-58.941 0-114.297-22.899-155.875-64.488-13.383-13.379-26.953-28.243-38.109-46.985-26.41-6.344-50.758-19.898-70.246-39.383-13.426-13.429-24.032-29.093-31.403-46.246C50.188 705.07 0 645.48 0 574.48c0-68.652 51.43-131.89 113.301-145.691l.308-.07-.976-2.457-7.606-19.375-90.382-230.336 103.406 40.672S60.031 127.684 132.125 0c0 0 144.336 27.805 171.93 135.406" fill="#0c0b0b" /> -->
    <path class="cloud" d="M192.25 467.383h-54.031c-49.782 0-96.848 52.047-96.848 107.097 0 58.989 47.934 106.993 106.899 107.098 4.089 20.899 14.164 39.809 29.335 54.985 18.411 18.414 42.524 29.363 68.297 31.105 8.993 21.535 22.582 37.793 40.059 55.27 33.766 33.769 78.73 52.367 126.613 52.367 47.887 0 92.852-18.598 126.621-52.367 26.895-26.895 42.426-56.004 48.672-91.317 54.762-18.953 91.27-70.043 91.27-128.359 0-74.922-60.957-135.879-135.883-135.879h-59.809l8.098 12.746h51.711c67.898 0 123.137 55.238 123.137 123.133 0 54.039-34.598 101.23-86.094 117.437l-3.774 1.188-.609 3.91c-5.344 34.262-19.875 62.266-45.734 88.125-31.364 31.363-73.129 48.633-117.606 48.633-44.472 0-86.242-17.27-117.597-48.633-17.356-17.352-30.582-33.297-38.711-54.688l-1.52-3.988-4.258-.117c-24.086-.684-46.765-10.481-63.867-27.578-14.558-14.559-23.785-33.016-26.68-53.383l-.82-5.777-5.824.304c-1.621.09-3.238.133-4.828.133-52.024 0-94.348-42.324-94.348-94.348 0-48.496 40.867-94.351 84.098-94.351h59.668l-5.637-12.746"
          fill="#fff" />
    <path class="fire" d="M200.141 231.18C96.106 190.168 154.32 49.8 154.32 49.8s143.301 51.247 101.555 157.161l-55.734 24.219"
          fill="#e94d1c" />
  </g>
  <g class="fire" clip-path="url(#b)"
     transform="matrix(.13333 0 0 -.13333 -5.4 116.7)">
    <path d="M154.32 49.8s-8.722 21.028-13.379 49.188l57.067 131.325c.699.292 1.418.582 2.133.867l29.172-12.676L156.34 50.566c-1.309-.511-2.02-.765-2.02-.765"
          fill="#ed8618" />
    <path d="M156.34 50.566l72.973 167.938 26.562-11.543a122.85 122.85 0 0 0 2.219-6.09L203.699 75.703c-21.062-14.355-41.082-22.691-47.359-25.137"
          fill="#ec6d19" />
    <path d="M168.699 246.719L92.992 72.496l30.653-13.32 75.707 174.222-30.653 13.321"
          fill="#efa117" />
  </g>
  <g clip-path="url(#c)"
     fill="#fff"
     transform="matrix(.13333 0 0 -.13333 -5.4 116.7)">
    <path class="rocket"
          d="M437.566 564.195l-100.16 43.52c38.477 39.668 74.602 60.933 89.469 68.719 4.438-16.184 13.492-57.071 10.691-112.239zM279.801 239.281l-72.453 31.481C212.195 432.707 272.93 535 323.297 592.461c1.308 1.496 2.609 2.898 3.922 4.348l109.308-47.504c-.172-1.942-.304-3.852-.507-5.821-7.707-75.996-41.137-190.16-156.219-304.203zm114.383 36.422l-47.403-99.152-31.398 79.66c20.613 22.82 38.234 45.547 53.226 67.883zM256.98 218.75l-49.015 21.305 8.82 11.265 42.414-18.429zm-143.07 58.988l40.149 102.313 55.039 14.922c-6.168-26.133-10.832-54.457-13.524-85.043zm314.52 415.125c-2.34-1.011-58-25.511-115.207-90.547-35.723-40.605-76.453-102.914-100.164-191.691l-69.512-18.852-54.54-138.972 105.391 41.543a683.195 683.195 0 0 1-1.238-27.981l-.113-4.73 10.41-4.524-17.793-22.707 82.402-35.812 4.469 28.508 10.348-4.5 3.383 3.308c6.425 6.278 12.558 12.563 18.507 18.848l40.77-103.43 64.383 134.699-32.539 61.575c49.355 78.386 67.32 151.144 72.711 205.23 8.59 86.16-11.399 143.535-12.25 145.938l-2.528 7.074-6.89-2.977" />
    <path class="window"
          d="M386.383 475.855c-4.57-10.515-12.965-18.621-23.633-22.828-10.672-4.207-22.336-4.004-32.852.567-10.519 4.57-18.628 12.961-22.832 23.629-4.207 10.668-4.003 22.34.567 32.855 4.715 10.856 13.406 18.781 23.637 22.813 10.23 4.031 21.992 4.172 32.847-.547 21.711-9.438 31.699-34.774 22.266-56.489zm-91.656 39.829c-6.071-13.965-6.336-29.457-.75-43.618 5.586-14.168 16.343-25.312 30.308-31.375 13.969-6.07 29.461-6.339 43.625-.753 14.164 5.582 25.309 16.347 31.375 30.312 12.528 28.824-.734 62.473-29.558 74.996-28.829 12.527-62.477-.734-75-29.562" />
  </g>
</svg>
