<?xml version="1.0" encoding="UTF-8" standalone="no"?>
<svg
   xmlns:dc="http://purl.org/dc/elements/1.1/"
   xmlns:cc="http://creativecommons.org/ns#"
   xmlns:rdf="http://www.w3.org/1999/02/22-rdf-syntax-ns#"
   xmlns:svg="http://www.w3.org/2000/svg"
   xmlns="http://www.w3.org/2000/svg"
   xmlns:sodipodi="http://sodipodi.sourceforge.net/DTD/sodipodi-0.dtd"
   xmlns:inkscape="http://www.inkscape.org/namespaces/inkscape"
   viewBox="0 0 122.99999 123.00001"
   height="123.00001"
   width="122.99999"
   xml:space="preserve"
   id="svg2"
   version="1.1"
   sodipodi:docname="logo.svg"
   inkscape:version="0.92.3 (2405546, 2018-03-11)"><sodipodi:namedview
     pagecolor="#ffffff"
     bordercolor="#666666"
     borderopacity="1"
     objecttolerance="10"
     gridtolerance="10"
     guidetolerance="10"
     inkscape:pageopacity="0"
     inkscape:pageshadow="2"
     inkscape:window-width="3840"
     inkscape:window-height="2131"
     id="namedview48"
     showgrid="false"
     inkscape:snap-bbox="true"
     inkscape:bbox-nodes="true"
     inkscape:snap-grids="false"
     inkscape:snap-page="true"
     inkscape:snap-center="true"
     inkscape:snap-global="false"
     inkscape:zoom="8.4812903"
     inkscape:cx="86.335215"
     inkscape:cy="22.862583"
     inkscape:window-x="0"
     inkscape:window-y="0"
     inkscape:window-maximized="1"
     inkscape:current-layer="g12"
     fit-margin-top="0"
     fit-margin-left="0"
     fit-margin-right="0"
     fit-margin-bottom="0" /><metadata
     id="metadata8"><rdf:RDF><cc:Work
         rdf:about=""><dc:format>image/svg+xml</dc:format><dc:type
           rdf:resource="http://purl.org/dc/dcmitype/StillImage" /><dc:title></dc:title></cc:Work></rdf:RDF></metadata><defs
     id="defs6"><clipPath
       id="clipPath20"
       clipPathUnits="userSpaceOnUse"><path
         id="path18"
         d="M 0,916.676 V 0 h 1700.79 v 916.676 z"
         inkscape:connector-curvature="0" /></clipPath><clipPath
       id="clipPath32"
       clipPathUnits="userSpaceOnUse"><path
         id="path30"
         d="M 200.141,231.18 C 96.1055,190.168 154.32,49.8008 154.32,49.8008 c 0,0 143.301,51.2462 101.555,157.1602 l -55.734,24.219"
         inkscape:connector-curvature="0" /></clipPath><clipPath
       id="clipPath42"
       clipPathUnits="userSpaceOnUse"><path
         id="path40"
         d="M 0,916.676 V 0 h 1700.79 v 916.676 z"
         inkscape:connector-curvature="0" /></clipPath><clipPath
       id="clipPath52"
       clipPathUnits="userSpaceOnUse"><path
         id="path50"
         d="M 200.141,231.18 C 96.1055,190.168 154.32,49.8008 154.32,49.8008 c 0,0 143.301,51.2462 101.555,157.1602 l -55.734,24.219"
         inkscape:connector-curvature="0" /></clipPath><clipPath
       id="clipPath66"
       clipPathUnits="userSpaceOnUse"><path
         id="path64"
         d="M 0,916.676 V 0 h 1700.79 v 916.676 z"
         inkscape:connector-curvature="0" /></clipPath></defs><g
     transform="matrix(1.3333333,0,0,-1.3333333,-45.866104,121.68778)"
     id="g10"><g
       transform="scale(0.1)"
       id="g12"><g
         id="g41"
         transform="matrix(1.0117053,0,0,1.0327381,436.14478,-25.249105)"
         inkscape:export-xdpi="468.29269"
         inkscape:export-ydpi="468.29269"><rect
           style="fill:#ffffff;stroke-width:9.02493858;image-rendering:auto"
           transform="scale(1,-1)"
           y="-908.17554"
           x="-91.08284"
           height="893.25653"
           width="911.82678"
           id="rect38" /></g><g
         id="g14"
         transform="translate(484.59609,-17.685989)"><g
           clip-path="url(#clipPath20)"
           id="g16"><path
             id="path24"
             style="fill:#e94d1c;fill-opacity:1;fill-rule:nonzero;stroke:none"
             d="M 200.141,231.18 C 96.1055,190.168 154.32,49.8008 154.32,49.8008 c 0,0 143.301,51.2462 101.555,157.1602 l -55.734,24.219"
             inkscape:connector-curvature="0" /></g></g><g
         id="g26"
         transform="translate(484.59609,-17.685989)"><g
           clip-path="url(#clipPath32)"
           id="g28"><path
             id="path34"
             style="fill:#efa117;fill-opacity:1;fill-rule:nonzero;stroke:none"
             d="M 168.699,246.719 92.9922,72.4961 123.645,59.1758 199.352,233.398 168.699,246.719"
             inkscape:connector-curvature="0" /></g></g><g
         id="g36"
         transform="translate(484.59609,-17.685989)"><g
           clip-path="url(#clipPath42)"
           id="g38"><path
             id="path44"
             style="fill:#e94d1c;fill-opacity:1;fill-rule:nonzero;stroke:none"
             d="M 200.141,231.18 C 96.1055,190.168 154.32,49.8008 154.32,49.8008 c 0,0 143.301,51.2462 101.555,157.1602 l -55.734,24.219"
             inkscape:connector-curvature="0" /></g></g><g
         id="g46"
         transform="translate(484.59609,-17.685989)"><g
           clip-path="url(#clipPath52)"
           id="g48"><path
             id="path54"
             style="fill:#ed8618;fill-opacity:1;fill-rule:nonzero;stroke:none"
             d="m 154.32,49.8008 c 0,0 -8.722,21.0273 -13.379,49.1875 l 57.067,131.3247 c 0.699,0.292 1.418,0.582 2.133,0.867 L 229.313,218.504 156.34,50.5664 c -1.309,-0.5117 -2.02,-0.7656 -2.02,-0.7656"
             inkscape:connector-curvature="0" /><path
             id="path56"
             style="fill:#ec6d19;fill-opacity:1;fill-rule:nonzero;stroke:none"
             d="m 156.34,50.5664 72.973,167.9376 26.562,-11.543 c 0.809,-2.051 1.547,-4.082 2.219,-6.09 L 203.699,75.7031 C 182.637,61.3477 162.617,53.0117 156.34,50.5664"
             inkscape:connector-curvature="0" /><path
             id="path58"
             style="fill:#efa117;fill-opacity:1;fill-rule:nonzero;stroke:none"
             d="M 168.699,246.719 92.9922,72.4961 123.645,59.1758 199.352,233.398 168.699,246.719"
             inkscape:connector-curvature="0" /></g></g><g
         id="g62"
         clip-path="url(#clipPath66)"
         transform="translate(484.59609,-17.685989)"><path
           inkscape:connector-curvature="0"
           d="m 192.25,467.383 h -54.031 c -49.7815,0 -96.8479,52.047 -96.8479,107.097 0,58.989 47.9336,106.993 106.8989,107.098 4.089,20.899 14.164,39.809 29.335,54.985 18.411,18.414 42.524,29.363 68.297,31.105 8.993,21.535 22.582,37.793 40.059,55.27 33.766,33.769 78.73,52.367 126.613,52.367 47.887,0 92.852,-18.598 126.621,-52.367 26.895,-26.895 42.426,-56.004 48.672,-91.317 54.762,-18.953 91.27,-70.043 91.27,-128.359 0,-74.922 -60.957,-135.879 -135.883,-135.879 h -59.809 l 8.098,12.746 h 51.711 c 67.898,0 123.137,55.238 123.137,123.133 0,54.039 -34.598,101.23 -86.094,117.437 l -3.774,1.188 -0.609,3.91 c -5.344,34.262 -19.875,62.266 -45.734,88.125 -31.364,31.363 -73.129,48.633 -117.606,48.633 -44.472,0 -86.242,-17.27 -117.597,-48.633 -17.356,-17.352 -30.582,-33.297 -38.711,-54.688 l -1.52,-3.988 -4.258,-0.117 c -24.086,-0.684 -46.765,-10.481 -63.867,-27.578 -14.558,-14.559 -23.785,-33.016 -26.68,-53.383 l -0.82,-5.777 -5.824,0.304 c -1.621,0.09 -3.238,0.133 -4.828,0.133 -52.0237,0 -94.3479,-42.324 -94.3479,-94.348 0,-48.496 40.8672,-94.351 84.0979,-94.351 h 59.668 l -5.637,-12.746"
           style="fill:#0c0b0b;fill-opacity:1;fill-rule:nonzero;stroke:none"
           id="path68" /><path
           inkscape:connector-curvature="0"
           d="m 437.566,564.195 -100.16,43.52 c 38.477,39.668 74.602,60.933 89.469,68.719 4.438,-16.184 13.492,-57.071 10.691,-112.239 z M 279.801,239.281 207.348,270.762 c 4.847,161.945 65.582,264.238 115.949,321.699 1.308,1.496 2.609,2.898 3.922,4.348 l 109.308,-47.504 c -0.172,-1.942 -0.304,-3.852 -0.507,-5.821 -7.707,-75.996 -41.137,-190.16 -156.219,-304.203 z m 114.383,36.422 -47.403,-99.152 -31.398,79.66 c 20.613,22.82 38.234,45.547 53.226,67.883 z M 256.98,218.75 l -49.015,21.305 8.82,11.265 42.414,-18.429 z m -143.07,58.988 40.149,102.313 55.039,14.922 C 202.93,368.84 198.266,340.516 195.574,309.93 Z m 314.52,415.125 c -2.34,-1.011 -58,-25.511 -115.207,-90.547 C 277.5,561.711 236.77,499.402 213.059,410.625 L 143.547,391.773 89.0078,252.801 194.398,294.344 c -0.585,-9.145 -1.019,-18.449 -1.238,-27.981 l -0.113,-4.73 10.41,-4.524 -17.793,-22.707 82.402,-35.812 4.469,28.508 10.348,-4.5 3.383,3.308 c 6.425,6.278 12.558,12.563 18.507,18.848 l 40.77,-103.43 64.383,134.699 -32.539,61.575 c 49.355,78.386 67.32,151.144 72.711,205.23 8.59,86.16 -11.399,143.535 -12.25,145.938 l -2.528,7.074 -6.89,-2.977"
           style="fill:#0c0b0b;fill-opacity:1;fill-rule:nonzero;stroke:none"
           id="path70" /><path
           inkscape:connector-curvature="0"
           d="m 386.383,475.855 c -4.57,-10.515 -12.965,-18.621 -23.633,-22.828 -10.672,-4.207 -22.336,-4.004 -32.852,0.567 -10.519,4.57 -18.628,12.961 -22.832,23.629 -4.207,10.668 -4.003,22.34 0.567,32.855 4.715,10.856 13.406,18.781 23.637,22.813 10.23,4.031 21.992,4.172 32.847,-0.547 21.711,-9.438 31.699,-34.774 22.266,-56.489 z m -91.656,39.829 c -6.071,-13.965 -6.336,-29.457 -0.75,-43.618 5.586,-14.168 16.343,-25.312 30.308,-31.375 13.969,-6.07 29.461,-6.339 43.625,-0.753 14.164,5.582 25.309,16.347 31.375,30.312 12.528,28.824 -0.734,62.473 -29.558,74.996 -28.829,12.527 -62.477,-0.734 -75,-29.562"
           style="fill:#0c0b0b;fill-opacity:1;fill-rule:nonzero;stroke:none"
           id="path72" /></g></g></g></svg>