<svg xmlns="http://www.w3.org/2000/svg" height="116" width="116">
  <style>
    .rocket {
      fill: #fff;
    }

    .cloud {
      stroke: #fff;
      fill: transparent;
      stroke-width: 60px;
      stroke-alignment: inner;
    }
  </style>
  <defs>
    <clipPath id="fire">
      <path d="M200.141 231.18C96.106 190.168 154.32 49.8 154.32 49.8s143.301 51.247 101.555 157.161l-55.734 24.219"/>
    </clipPath>
    <mask id="window">
      <rect x="0" y="0" width="600" height="600" fill="white" />
      <circle cx="346" cy="493" r="40" transform="matrix(.13333 0 0 -.13333 10 122.227)"/>
    </mask>
    <clipPath id="rocket">
      <path transform="matrix(.13333 0 0 -.13333 10 122.227)" d="M429 693c-2-1-58-26-112-91-36-41-76-103-100-192l-70-19-55-139 105 42a683 683 0 0 1-1-28l0-5 10-5-18-23 82-36 4 29 10-4 3 3c6 6 13 13 19 19l41-103 64 135-33 62c49 78 67 151 73 205 9 86-11 144-12 146l-3 7-7-3"/>
    </clipPath>
  </defs>
  <g transform="matrix(.13333 0 0 -.13333 10 122.227)">
    <path class="cloud" d="M192 467h-54c-50 0-97 52-97 107 0 59 48 107 107 107 4 21 14 40 29 55 18 18 43 29 68 31 9 22 23 38 40 55 34 34 79 52 127 52 48 0 93-19 127-52 27-27 42-56 49-91 55-19 91-70 91-128 0-75-61-136-136-136h-60"/>
  </g>
  <g clip-path="url(#fire)" transform="matrix(.13333 0 0 -.13333 10 122.227)">
    <path d="M200.141 231.18C96.106 190.168 154.32 49.8 154.32 49.8s143.301 51.247 101.555 157.161l-55.734 24.219" fill="#e94d1c"/>
    <path d="M154.32 49.8s-8.722 21.028-13.379 49.188l57.067 131.325c.699.292 1.418.582 2.133.867l29.172-12.676L156.34 50.566c-1.309-.511-2.02-.765-2.02-.765" fill="#ed8618"/>
    <path d="M156.34 50.566l72.973 167.938 26.562-11.543a122.85 122.85 0 0 0 2.219-6.09L203.699 75.703c-21.062-14.355-41.082-22.691-47.359-25.137" fill="#ec6d19"/>
    <path d="M168.699 246.719L92.992 72.496l30.653-13.32 75.707 174.222-30.653 13.321" fill="#efa117"/>
  </g>
  <g clip-path="url(#rocket)">  <!-- mask="url(#window)" -->
    <rect class="rocket" width="116" height="116"/>
  </g>
</svg>
