<?xml version="1.0" encoding="utf-8"?>
<!-- Generator: Adobe Illustrator 23.0.4, SVG Export Plug-In . SVG Version: 6.00 Build 0)  -->
<svg version="1.1" id="Ebene_1" xmlns="http://www.w3.org/2000/svg" xmlns:xlink="http://www.w3.org/1999/xlink" x="0px" y="0px"
	 viewBox="0 0 226.8 122.9" style="enable-background:new 0 0 226.8 122.9;" xml:space="preserve">
<style type="text/css">
	.st0{fill:#FFFFFF;}
	.st1{fill:#171615;}
	.st2{fill:#428FD3;}
	.st3{fill:#959B35;}
	.st4{fill:#589A77;}
	.st5{fill:#EFA217;}
	.st6{enable-background:new    ;}
</style>
<g>
	<g>
		<g transform="matrix(.13333 0 0 -.13333 0 122.92)">
			<path class="st0" d="M1700.8,421c0,24.2-19.8,44-44,44H647.2c44.4,32.2,73.3,84.6,73.3,143.5c0,67.5-38.2,128.4-97.1,158.2
				c-9.9,33.9-27.9,63.8-54.9,90.8c-41.6,41.6-96.9,64.5-155.9,64.5c-58.9,0-114.3-22.9-155.9-64.5c-13.4-13.4-27-28.3-38.1-47
				c-26.4-6.3-50.8-19.9-70.2-39.4c-13.4-13.4-24-29.1-31.4-46.2C50.2,710.2,0,650.7,0,579.7C0,511,51.4,447.8,113.3,434l0.3-0.1
				l-1-2.5L105,412L14.6,181.7L118,222.4c0,0-57.7-94.7,14.4-222.4c178.1,40.4,163.9,176.7,163.9,176.7l52.8-133.2l81,170.9h1270.7
				L1700.8,421"/>
			<path class="st1" d="M192.2,472.6h-54c-49.8,0-96.8,52-96.8,107.1c0,59,47.9,107,106.9,107.1c4.1,20.9,14.2,39.8,29.3,55
				c18.4,18.4,42.5,29.4,68.3,31.1c9,21.5,22.6,37.8,40.1,55.3c33.8,33.8,78.7,52.4,126.6,52.4s92.9-18.6,126.6-52.4
				c26.9-26.9,42.4-56,48.7-91.3c54.8-19,91.3-70.1,91.3-128.4c0-74.9-61-135.9-135.9-135.9h-59.8l8.1,12.7h51.7
				c67.9,0,123.1,55.2,123.1,123.1c0,54-34.6,101.2-86.1,117.4l-3.8,1.2l-0.6,3.9c-5.3,34.3-19.9,62.3-45.7,88.1
				c-31.4,31.4-73.1,48.6-117.6,48.6S326.4,850.3,295,819c-17.4-17.4-30.6-33.3-38.7-54.7l-1.5-4l-4.3-0.1
				c-24.1-0.7-46.8-10.5-63.9-27.6c-14.6-14.6-23.8-33-26.7-53.4l-0.8-5.8l-5.8,0.3c-1.6,0.1-3.2,0.1-4.8,0.1
				c-52,0-94.3-42.3-94.3-94.4c0-48.5,40.9-94.3,84.1-94.3H198L192.2,472.6"/>
			<path class="st2" d="M200.1,236.4C96.1,195.3,154.3,55,154.3,55s143.3,51.3,101.6,157.2L200.1,236.4"/>
		</g>
	</g>
</g>
<g>
	<g>
		<g transform="matrix(.13333 0 0 -.13333 0 122.92)">
			<path class="st3" d="M154.3,55c0,0-8.7,21-13.4,49.2L198,235.5c0.7,0.3,1.4,0.6,2.1,0.9l29.2-12.7l-73-167.9
				C155,55.2,154.3,55,154.3,55"/>
			<path class="st4" d="M156.3,55.7l73,167.9l26.6-11.5c0.8-2,1.5-4,2.2-6.1L203.7,80.9C182.6,66.5,162.6,58.2,156.3,55.7"/>
			<path class="st5" d="M141,104.2l57,131.2C136.4,209.7,133.7,148.3,141,104.2z"/>
		</g>
	</g>
</g>
<g>
	<g>
		<g transform="matrix(.13333 0 0 -.13333 0 122.92)">
			<path class="st1" d="M437.6,569.4l-100.2,43.5c38.5,39.7,74.6,60.9,89.5,68.7C431.3,665.4,440.4,624.5,437.6,569.4z M279.8,244.5
				L207.4,276c4.9,161.9,65.6,264.2,115.9,321.7c1.3,1.5,2.6,2.9,3.9,4.3l109.3-47.5c-0.2-1.9-0.3-3.8-0.5-5.8
				C428.3,472.7,394.9,358.5,279.8,244.5L279.8,244.5z M394.2,280.9l-47.4-99.2l-31.4,79.7c20.6,22.8,38.2,45.5,53.2,67.9
				L394.2,280.9z M257,223.9l-49,21.3l8.8,11.3l42.4-18.4L257,223.9z M113.9,282.9L154,385.2l55,14.9c-6.2-26.1-10.8-54.5-13.5-85
				L113.9,282.9z M428.4,698c-2.3-1-58-25.5-115.2-90.5c-35.7-40.6-76.4-102.9-100.2-191.7l-69.5-18.9L89,258l105.4,41.5
				c-0.6-9.3-1-18.6-1.2-28l-0.1-4.7l10.4-4.5l-17.8-22.7l82.4-35.8l4.5,28.5l10.4-4.5l3.4,3.3c6.4,6.3,12.6,12.6,18.5,18.9
				l40.8-103.4l64.4,134.7l-32.5,61.6c49.4,78.4,67.3,151.1,72.7,205.2c8.6,86.2-11.4,143.5-12.3,145.9l-2.5,7.1L428.4,698"/>
			<path class="st1" d="M386.4,481c-4.6-10.5-13-18.6-23.6-22.8c-10.7-4.2-22.3-4-32.9,0.6c-10.5,4.6-18.6,13-22.8,23.6
				c-4.2,10.7-4,22.3,0.6,32.9c4.7,10.8,13.4,18.8,23.6,22.8s22,4.2,32.8-0.5C385.8,528.1,395.8,502.7,386.4,481z M294.7,520.9
				c-6.1-14-6.3-29.5-0.8-43.6c5.6-14.2,16.3-25.3,30.3-31.4s29.5-6.3,43.6-0.8c14.2,5.6,25.3,16.3,31.4,30.3
				c12.5,28.8-0.7,62.5-29.6,75C340.9,563,307.2,549.7,294.7,520.9 M509.4,315.2l15.3,9.1c2.6-5.1,6-8.9,10.3-11.6s9.2-4,14.5-4
				c4.7,0,8.6,0.9,11.6,2.6c3,1.8,4.5,4.4,4.5,8c0,3.5-1.6,6.2-4.8,8c-3.2,1.9-7.8,3.6-13.9,5.3c-4,1.2-8.1,2.4-12.1,3.7
				c-4,1.2-7.6,2.8-10.8,4.9c-3.2,2-5.7,4.6-7.7,7.7s-2.9,7.1-2.9,11.9c0,4.3,0.8,8.1,2.4,11.5c1.6,3.3,3.9,6.3,6.8,8.6
				c2.9,2.4,6.4,4.1,10.4,5.4c4.1,1.2,8.6,1.8,13.5,1.8c4.7,0,9-0.5,12.7-1.5c3.8-1,7.1-2.4,10.1-4.1s5.6-3.7,7.8-6s4.2-4.6,5.8-7.1
				l-14-10.7c-2.4,4-5.7,7.1-9.8,9.5s-8.4,3.6-12.8,3.6c-4.3,0-7.6-0.9-9.9-2.6c-2.3-1.7-3.4-4-3.4-6.8c0-3.7,1.6-6.4,4.9-8.3
				c3.3-1.8,7.9-3.6,13.9-5.2c4-1.2,8-2.5,12-3.7s7.6-2.9,10.7-5c3.2-2.1,5.7-4.7,7.7-7.8s2.9-7,2.9-11.7c0-3.7-0.7-7.2-2.2-10.6
				c-1.5-3.3-3.7-6.3-6.6-8.9c-3-2.6-6.8-4.6-11.4-6.1c-4.6-1.5-10.1-2.3-16.5-2.3c-5,0-9.5,0.6-13.5,1.7c-4.1,1.1-7.7,2.7-10.9,4.7
				s-6,4.3-8.4,7.1C513.2,308.9,511.1,312,509.4,315.2 M627.6,329.6h21.6l-10.5,31.3h-0.2L627.6,329.6z M596.9,294.4l32.5,92.2h19.3
				l32.5-92.2h-20.5l-6.8,20.6h-31.3l-7.1-20.6L596.9,294.4 M720.2,342.7H734c6.3,0,10.7,1.2,13.3,3.5s3.9,5.7,3.9,10.3
				c0,4.3-1.3,7.6-3.9,10c-2.6,2.3-7,3.5-13.4,3.5h-13.8v-27.3H720.2z M700.2,294.4v91.9h33.4c4.8,0,9.5-0.4,14.1-1.2
				c4.5-0.8,8.5-2.3,12-4.5s6.2-5.2,8.3-9s3.1-8.7,3.1-14.7c0-6.3-1.1-11.4-3.3-15.3s-5.1-7-8.7-9.2c-3.6-2.2-7.7-3.7-12.2-4.5
				s-9-1.2-13.6-1.2h-13.1v-32.3L700.2,294.4 M826.8,340.4c0,7.9,1.1,14.9,3.2,20.8c2.1,6,5.1,10.9,8.9,14.9c3.8,4,8.2,6.9,13.3,8.9
				c5.1,1.9,10.5,2.9,16.3,2.9s10.8-0.7,15-2.2c4.2-1.4,7.8-3.5,10.8-6.1s5.4-5.7,7.2-9.2s3.2-7.4,4.2-11.5l-19.1-5.6
				c-0.7,2.6-1.6,5-2.6,7.2s-2.2,4.1-3.6,5.6c-1.4,1.5-3.1,2.7-5,3.6s-4.3,1.3-7,1.3c-7,0-12.3-2.7-15.9-8.2
				c-3.6-5.5-5.4-13-5.4-22.4c0-9.7,1.9-17.3,5.6-22.9c3.7-5.6,9-8.5,16-8.5c5.5,0,9.6,1.6,12.5,4.9s5.2,8.1,6.8,14.3l19-4.2
				c-1.2-4.6-2.7-8.8-4.7-12.7c-1.9-3.9-4.5-7.2-7.6-9.9c-3.1-2.8-6.8-4.9-11.1-6.5c-4.3-1.5-9.3-2.3-15.1-2.3
				c-5.9,0-11.5,1-16.5,2.9c-5.1,2-9.5,4.9-13.2,8.8s-6.7,8.9-8.8,14.9C827.8,325.2,826.8,332.3,826.8,340.4 M929.1,294.4v91.9h20.2
				v-75.5h40.4v-16.4H929.1 M1022,340.3c0-4.8,0.5-9.1,1.6-13s2.6-7.2,4.6-9.9c2-2.7,4.4-4.8,7.3-6.2c2.9-1.4,6.1-2.1,9.6-2.1
				s6.8,0.7,9.6,2.1c2.8,1.4,5.3,3.5,7.2,6.2c2,2.7,3.5,6,4.6,9.9s1.6,8.2,1.6,13c0,9.6-2.1,17.2-6.2,22.6
				c-4.2,5.5-9.8,8.2-16.9,8.2c-7.2,0-12.8-2.7-16.9-8.2C1024.1,357.4,1022,349.9,1022,340.3z M1001.8,340.3c0,8,1.2,15,3.7,21
				c2.4,6,5.7,11,9.7,14.9s8.6,6.9,13.9,8.8c5.2,1.9,10.6,2.9,16.2,2.9c5.5,0,10.9-1,16.1-2.9s9.7-4.9,13.8-8.8
				c4-3.9,7.2-8.9,9.6-14.9s3.7-13,3.7-21c0-8.1-1.2-15.1-3.7-21.1c-2.4-6-5.6-10.9-9.6-14.8s-8.6-6.8-13.8-8.8
				c-5.2-2-10.5-2.9-16.1-2.9s-10.9,1-16.2,2.9c-5.2,1.9-9.9,4.9-13.8,8.8c-4,3.9-7.2,8.8-9.7,14.8
				C1003,325.2,1001.8,332.2,1001.8,340.3 M1108.5,329.6v56.7h20.2V330c0-6.7,1.3-11.8,4-15.4s7.1-5.3,13.1-5.3
				c5.9,0,10.2,1.8,12.9,5.3c2.7,3.6,4,8.7,4,15.4v56.3h20v-56.6c0-5.7-0.7-10.8-2.2-15.3c-1.4-4.5-3.7-8.4-6.7-11.6
				s-6.9-5.6-11.6-7.3c-4.7-1.7-10.2-2.5-16.7-2.5c-6.3,0-11.9,0.8-16.6,2.5s-8.6,4.1-11.6,7.3c-3,3.2-5.3,7-6.8,11.5
				C1109.2,318.8,1108.5,323.9,1108.5,329.6 M1227.5,310.8h9.5c5,0,9.2,0.6,12.7,1.8s6.4,2.9,8.6,5.3s3.8,5.5,4.8,9.2
				c1,3.8,1.5,8.3,1.5,13.5c0,9.8-2.1,17-6.4,21.7s-11.4,7.1-21.5,7.1h-9.2V310.8z M1207.5,294.4v91.9h28.2c7,0,13.5-0.8,19.5-2.4
				s11.2-4.2,15.6-7.8c4.4-3.6,7.8-8.3,10.3-14.1c2.5-5.8,3.7-12.9,3.7-21.2c0-8.6-1.3-15.9-3.8-21.8s-6-10.7-10.5-14.3
				c-4.4-3.6-9.6-6.3-15.6-7.9c-5.9-1.6-12.4-2.4-19.3-2.4L1207.5,294.4 M1342.7,315.2l15.3,9.1c2.6-5.1,6-8.9,10.3-11.6
				s9.2-4,14.5-4c4.7,0,8.6,0.9,11.6,2.6c3,1.8,4.4,4.4,4.4,8c0,3.5-1.6,6.2-4.8,8c-3.2,1.9-7.8,3.6-13.9,5.3
				c-4,1.2-8.1,2.4-12.1,3.7c-4,1.2-7.6,2.8-10.8,4.9c-3.2,2-5.7,4.6-7.7,7.7s-2.9,7.1-2.9,11.9c0,4.3,0.8,8.1,2.4,11.5
				c1.6,3.3,3.9,6.3,6.8,8.6c2.9,2.4,6.4,4.1,10.4,5.4c4.1,1.2,8.6,1.8,13.6,1.8c4.7,0,9-0.5,12.7-1.5c3.8-1,7.1-2.4,10.1-4.1
				s5.6-3.7,7.8-6c2.2-2.3,4.2-4.6,5.8-7.1l-14-10.7c-2.4,4-5.7,7.1-9.8,9.5c-4.1,2.4-8.4,3.6-12.8,3.6c-4.3,0-7.6-0.9-9.8-2.6
				c-2.3-1.7-3.4-4-3.4-6.8c0-3.7,1.6-6.4,4.9-8.3c3.3-1.8,7.9-3.6,13.9-5.2c4-1.2,8-2.5,12-3.7s7.6-2.9,10.7-5
				c3.2-2.1,5.7-4.7,7.7-7.8c1.9-3.1,2.9-7,2.9-11.7c0-3.7-0.7-7.2-2.2-10.6c-1.4-3.3-3.7-6.3-6.6-8.9c-3-2.6-6.8-4.6-11.4-6.1
				s-10.1-2.3-16.5-2.3c-5,0-9.5,0.6-13.5,1.7c-4.1,1.1-7.7,2.7-10.9,4.7c-3.2,1.9-6,4.3-8.4,7.1
				C1346.5,308.9,1344.4,312,1342.7,315.2 M1461,310.8h9.5c5,0,9.2,0.6,12.8,1.8c3.5,1.2,6.4,2.9,8.6,5.3s3.8,5.5,4.8,9.2
				c1,3.8,1.5,8.3,1.5,13.5c0,9.8-2.1,17-6.4,21.7s-11.4,7.1-21.4,7.1h-9.2v-58.6H1461z M1441,294.4v91.9h28.2
				c7,0,13.6-0.8,19.5-2.4c6-1.6,11.2-4.2,15.6-7.8c4.4-3.6,7.8-8.3,10.3-14.1c2.5-5.8,3.7-12.9,3.7-21.2c0-8.6-1.3-15.9-3.8-21.8
				s-6-10.7-10.4-14.3c-4.5-3.6-9.6-6.3-15.6-7.9c-5.9-1.6-12.4-2.4-19.3-2.4L1441,294.4 M1540.3,294.4v91.9h20.2v-38l30.8,38h23.6
				l-31.2-35.9l34.4-56h-22.8l-24.7,40.7l-10.1-11.3v-29.4L1540.3,294.4"/>
			<path class="st2" d="M349.1,43.5l-52.8,133.2c0,0,14.3-136.3-163.9-176.7h1524.3c24.2,0,44,19.8,44,44v170.5H430.1L349.1,43.5"/>
			<path class="st0" d="M1089,133.5v5.2h11.4v11c0,5.6,1.6,9.6,4.9,12c3.2,2.4,7.6,3.7,13,3.7h3.2v-5.7l-1.9,0.1h-2.1
				c-3.3,0-6-0.7-8.1-2.2s-3.1-4-3.1-7.5v-11.5h14.4v-5.2h-14.4V73.6h-5.9v59.9H1089 M1142.1,106.3c0-3.8,0.5-7.5,1.4-11
				s2.4-6.5,4.3-9.2c1.9-2.6,4.3-4.8,7.2-6.3c2.8-1.6,6.1-2.4,9.8-2.4c3.5,0,6.6,0.7,9.4,2.2s5.2,3.5,7.2,6c2,2.6,3.5,5.6,4.5,9.1
				s1.5,7.4,1.5,11.5c0,3.8-0.5,7.4-1.5,10.8s-2.4,6.5-4.3,9.1s-4.2,4.8-7.1,6.3c-2.8,1.6-6.1,2.4-9.8,2.4c-3.5,0-6.6-0.7-9.5-2.2
				c-2.8-1.5-5.2-3.5-7.2-6c-2-2.6-3.5-5.6-4.5-9.1S1142.1,110.3,1142.1,106.3L1142.1,106.3z M1136.2,106.1c0,5.2,0.7,9.9,2.2,14.1
				s3.5,7.8,6.1,10.7s5.6,5.2,9.1,6.8s7.2,2.4,11.3,2.4c4,0,7.7-0.8,11.2-2.4c3.5-1.6,6.6-3.8,9.1-6.8c2.6-3,4.6-6.5,6.1-10.7
				s2.2-8.9,2.2-14.1s-0.7-9.9-2.2-14.1s-3.5-7.8-6.1-10.7c-2.5-2.9-5.6-5.2-9.1-6.8c-3.5-1.6-7.2-2.4-11.2-2.4s-7.8,0.8-11.3,2.4
				s-6.5,3.8-9.1,6.8c-2.6,2.9-4.6,6.5-6.1,10.7C1136.9,96.2,1136.2,100.9,1136.2,106.1 M1218,73.6v65.1h5.9v-13.6h0.2
				c2.8,4.3,6.3,7.9,10.6,10.7c4.3,2.9,9.7,4.3,16.3,4.3h1.7l-1-5.6h-2.1c-5.5,0-10.5-1.6-15-4.7c-4.5-3.1-8-7.6-10.7-13.3v-43
				L1218,73.6"/>
			<g class="st6">
				<path class="st0" d="M1295.5,79.2l12.8,14.3c2.1-1.9,4.6-3.7,7.4-5.2s5.8-2.3,8.9-2.3c4.1,0,7.3,1.3,9.6,4
					c2.2,2.7,3.3,7.3,3.3,13.7v69.4h22.8V100c0-4.8-0.6-9.2-1.9-13.2s-3.3-7.4-6.1-10.2c-2.8-2.8-6.4-5.1-10.8-6.7
					s-9.7-2.4-15.8-2.4c-7.2,0-13.2,1.1-17.9,3.4C1303.1,73.3,1299,76.1,1295.5,79.2z"/>
			</g>
			<g class="st6">
				<path class="st0" d="M1378.3,88.7c0,8.6,3.8,15.3,11.3,20.1c7.6,4.8,19.5,7.9,36,9.3v1.8c0,2.8-0.8,4.9-2.3,6.6
					c-1.5,1.6-4.1,2.4-7.8,2.4c-4.7,0-9.1-0.9-13.2-2.6s-7.8-4-11.2-6.7l-9.6,13c1.9,1.6,4,3.2,6.4,4.8s5.1,3,8.1,4.3
					c3,1.2,6.4,2.2,10.2,3c3.8,0.7,8,1.1,12.6,1.1c10.3,0,17.6-2.5,22.1-7.4s6.7-12.2,6.7-21.8V87.8c0-4.5,0.2-8.2,0.5-11
					c0.3-2.9,0.9-5.3,1.6-7.1h-22.4c-0.5,1.6-0.8,3.3-1.2,5.1c-0.3,1.8-0.5,3.7-0.5,5.9c-3.4-3.9-7.2-6.9-11.4-9
					c-4.2-2.1-9-3.1-14.6-3.1c-2.9,0-5.7,0.4-8.2,1.3c-2.6,0.9-4.8,2.2-6.8,3.9c-2,1.7-3.5,3.8-4.6,6.4
					C1378.9,82.6,1378.3,85.5,1378.3,88.7z M1400.3,92.6c0-2.4,0.8-4.2,2.3-5.4c1.5-1.2,3.5-1.8,6-1.8c3.9,0,7.3,0.6,10.1,1.8
					c2.8,1.2,5.1,2.8,6.9,4.7v13.8c-8.9-0.9-15.4-2.5-19.3-4.7C1402.3,98.9,1400.3,96,1400.3,92.6z"/>
			</g>
			<g class="st6">
				<path class="st0" d="M1459.4,144.3h23.2l15.7-49.7h0.3l15.7,49.7h21l-26.5-74.8h-22.7L1459.4,144.3z"/>
			</g>
			<g class="st6">
				<path class="st0" d="M1542.8,88.7c0,8.6,3.8,15.3,11.3,20.1c7.6,4.8,19.5,7.9,36,9.3v1.8c0,2.8-0.8,4.9-2.3,6.6
					c-1.5,1.6-4.1,2.4-7.8,2.4c-4.7,0-9.1-0.9-13.2-2.6s-7.8-4-11.2-6.7l-9.6,13c1.9,1.6,4,3.2,6.4,4.8s5.1,3,8.1,4.3
					c3,1.2,6.4,2.2,10.2,3c3.8,0.7,8,1.1,12.6,1.1c10.3,0,17.6-2.5,22.1-7.4s6.7-12.2,6.7-21.8V87.8c0-4.5,0.2-8.2,0.5-11
					c0.3-2.9,0.9-5.3,1.6-7.1h-22.4c-0.5,1.6-0.8,3.3-1.2,5.1c-0.3,1.8-0.5,3.7-0.5,5.9c-3.4-3.9-7.2-6.9-11.4-9
					c-4.2-2.1-9-3.1-14.6-3.1c-2.9,0-5.7,0.4-8.2,1.3c-2.6,0.9-4.8,2.2-6.8,3.9c-2,1.7-3.5,3.8-4.6,6.4
					C1543.3,82.6,1542.8,85.5,1542.8,88.7z M1564.8,92.6c0-2.4,0.8-4.2,2.3-5.4c1.5-1.2,3.5-1.8,6-1.8c3.9,0,7.3,0.6,10.1,1.8
					c2.8,1.2,5.1,2.8,6.9,4.7v13.8c-8.9-0.9-15.4-2.5-19.3-4.7C1566.8,98.9,1564.8,96,1564.8,92.6z"/>
			</g>
		</g>
	</g>
</g>
</svg>
