<?xml version="1.0" encoding="utf-8"?>
<!-- Generator: Adobe Illustrator 23.0.4, SVG Export Plug-In . SVG Version: 6.00 Build 0)  -->
<svg version="1.1" id="Ebene_1" xmlns="http://www.w3.org/2000/svg" xmlns:xlink="http://www.w3.org/1999/xlink" x="0px" y="0px"
	 viewBox="0 0 226.8 122.9" style="enable-background:new 0 0 226.8 122.9;" xml:space="preserve">
<style type="text/css">
	.st0{fill:#0C0C0B;}
	.st1{fill:#FFFFFF;}
	.st2{fill:#52BE36;}
	.st3{fill:#C4AF1D;}
	.st4{fill:#96B926;}
	.st5{fill:#EFA117;}
	.st6{enable-background:new    ;}
</style>
<g>
	<g>
		<g transform="matrix(.13333 0 0 -.13333 0 122.92)">
			<path class="st0" d="M1700.8,421c0,24.2-19.8,44-44,44H647.2c44.4,32.2,73.3,84.6,73.3,143.5c0,67.4-38.2,128.4-97.1,158.2
				c-9.9,33.9-28,63.8-54.9,90.8c-41.6,41.6-96.9,64.5-155.9,64.5c-58.9,0-114.3-22.9-155.9-64.5c-13.4-13.4-27-28.2-38.1-47
				c-26.6-6.4-50.9-20-70.2-39.4c-13.4-13.4-24-29.1-31.4-46.2C50.2,710.3,0,650.7,0,579.7C0,511,51.4,447.8,113.3,434l0.3-0.1
				l-1-2.5L105,412L14.6,181.7L118,222.4c0,0-57.7-94.7,14.4-222.4c178.1,40.4,163.9,176.7,163.9,176.7l52.8-133.2l81,170.9h1270.7
				L1700.8,421"/>
			<path class="st1" d="M192.2,472.6h-54c-49.8,0-96.8,52-96.8,107.1c0,59,47.9,107,106.9,107.1c4.1,20.9,14.2,39.8,29.3,55
				c18.4,18.4,42.5,29.4,68.3,31.1c9,21.5,22.6,37.8,40.1,55.3c33.8,33.8,78.7,52.4,126.6,52.4s92.9-18.6,126.6-52.4
				c26.9-26.9,42.4-56,48.7-91.3c54.8-19,91.3-70,91.3-128.4c0-74.9-61-135.9-135.9-135.9h-59.8l8.1,12.8h51.7
				c67.9,0,123.1,55.2,123.1,123.1c0,54-34.6,101.2-86.1,117.4l-3.8,1.2l-0.6,3.9c-5.3,34.3-19.9,62.3-45.7,88.1
				c-31.4,31.4-73.1,48.6-117.6,48.6s-86.2-17.3-117.6-48.6c-17.4-17.4-30.6-33.3-38.7-54.7l-1.5-4l-4.3-0.1
				c-24.1-0.7-46.8-10.5-63.9-27.6c-14.6-14.6-23.8-33-26.7-53.4l-0.8-5.8l-5.8,0.3c-1.6,0.1-3.2,0.1-4.8,0.1
				c-52,0-94.3-42.3-94.3-94.4c0-48.5,40.9-94.3,84.1-94.3H198L192.2,472.6"/>
			<path class="st2" d="M200.1,236.4C96.1,195.4,154.3,55,154.3,55s143.3,51.2,101.6,157.2L200.1,236.4"/>
		</g>
	</g>
</g>
<g>
	<g>
		<g transform="matrix(.13333 0 0 -.13333 0 122.92)">
			<path class="st3" d="M154.3,55c0,0-8.7,21-13.4,49.2L198,235.5c0.7,0.3,1.4,0.6,2.1,0.9l29.2-12.7l-73-167.9
				C155,55.2,154.3,55,154.3,55"/>
			<path class="st4" d="M156.3,55.7l73,167.9l26.6-11.5c0.8-2,1.5-4,2.2-6.1L203.7,80.9C182.6,66.5,162.6,58.2,156.3,55.7"/>
			<path class="st5" d="M141,104.2l57,131.2C136.4,209.7,133.7,148.3,141,104.2z"/>
		</g>
	</g>
</g>
<g>
	<g>
		<g transform="matrix(.13333 0 0 -.13333 0 122.92)">
			<path class="st1" d="M437.6,569.4l-100.2,43.5c38.5,39.7,74.6,60.9,89.5,68.7C431.3,665.4,440.4,624.5,437.6,569.4z M279.8,244.5
				L207.3,276c4.8,162,65.6,264.2,115.9,321.7c1.3,1.5,2.6,2.9,3.9,4.3l109.3-47.5c-0.2-1.9-0.3-3.8-0.5-5.8
				C428.3,472.7,394.9,358.5,279.8,244.5z M394.2,280.9l-47.4-99.2l-31.4,79.7c20.6,22.8,38.2,45.5,53.2,67.9L394.2,280.9z
				 M257,223.9l-49,21.3l8.8,11.3l42.4-18.4L257,223.9z M113.9,282.9L154,385.2l55,14.9c-6.2-26.1-10.8-54.5-13.5-85.1L113.9,282.9z
				 M428.4,698c-2.3-1-58-25.5-115.2-90.5c-35.7-40.6-76.4-102.9-100.2-191.7L143.5,397L89,258l105.4,41.5c-0.6-9.3-1-18.6-1.2-28
				l-0.1-4.7l10.4-4.5l-17.8-22.7l82.4-35.8l4.5,28.5l10.3-4.5l3.4,3.3c6.4,6.3,12.6,12.6,18.5,18.8l40.8-103.4L410,281.2
				l-32.5,61.6c49.4,78.4,67.3,151.1,72.7,205.2c8.6,86.2-11.4,143.5-12.2,145.9l-2.5,7.1L428.4,698"/>
			<path class="st1" d="M386.4,481c-4.6-10.5-13-18.6-23.6-22.8c-10.7-4.2-22.3-4-32.9,0.6c-10.5,4.6-18.6,13-22.8,23.6
				c-4.2,10.7-4,22.3,0.6,32.9c4.7,10.9,13.4,18.8,23.6,22.8s22,4.2,32.8-0.5C385.8,528.1,395.8,502.7,386.4,481z M294.7,520.9
				c-6.1-14-6.3-29.5-0.8-43.6c5.6-14.2,16.3-25.3,30.3-31.4s29.5-6.3,43.6-0.8c14.2,5.6,25.3,16.3,31.4,30.3
				c12.5,28.8-0.7,62.5-29.6,75C340.9,563,307.3,549.7,294.7,520.9 M509.4,315.2l15.3,9.1c2.5-5.1,6-8.9,10.3-11.6s9.2-4,14.5-4
				c4.7,0,8.6,0.9,11.5,2.6c3,1.8,4.5,4.4,4.5,8c0,3.5-1.6,6.2-4.8,8c-3.2,1.9-7.8,3.6-13.9,5.3c-4.1,1.2-8.1,2.4-12.1,3.7
				c-4,1.2-7.6,2.8-10.8,4.9c-3.2,2-5.7,4.6-7.7,7.7s-2.9,7.1-2.9,11.9c0,4.3,0.8,8.1,2.4,11.5c1.6,3.3,3.9,6.3,6.8,8.6
				c2.9,2.4,6.4,4.2,10.4,5.4c4.1,1.2,8.6,1.8,13.5,1.8c4.7,0,9-0.5,12.7-1.5c3.8-1,7.1-2.4,10.1-4.1s5.6-3.7,7.8-6s4.2-4.6,5.8-7.1
				l-14-10.7c-2.4,4-5.7,7.1-9.8,9.5s-8.4,3.6-12.9,3.6c-4.3,0-7.6-0.9-9.8-2.6c-2.3-1.7-3.4-4-3.4-6.8c0-3.7,1.6-6.4,4.9-8.2
				c3.3-1.8,7.9-3.6,13.9-5.2c4-1.2,8-2.5,12-3.7s7.6-2.9,10.7-5c3.2-2.1,5.7-4.7,7.7-7.8c2-3.1,2.9-7,2.9-11.7
				c0-3.7-0.7-7.2-2.2-10.6c-1.5-3.3-3.7-6.3-6.6-8.9c-3-2.6-6.8-4.6-11.4-6.1c-4.6-1.5-10.1-2.3-16.5-2.3c-5,0-9.5,0.6-13.5,1.7
				c-4.1,1.1-7.7,2.7-10.9,4.7c-3.2,1.9-6,4.3-8.4,7.1C513.2,308.9,511.1,312,509.4,315.2 M627.6,329.6h21.6l-10.5,31.3h-0.2
				L627.6,329.6z M596.9,294.4l32.5,92.2h19.3l32.5-92.2h-20.5l-6.8,20.6h-31.3l-7.1-20.6L596.9,294.4 M720.2,342.7H734
				c6.3,0,10.7,1.2,13.3,3.5s3.9,5.7,3.9,10.3c0,4.3-1.3,7.6-3.9,10c-2.6,2.3-7,3.5-13.4,3.5h-13.8L720.2,342.7z M700.2,294.4v91.9
				h33.4c4.8,0,9.5-0.4,14.1-1.2c4.5-0.8,8.5-2.3,12-4.5s6.2-5.2,8.3-9s3.1-8.7,3.1-14.7c0-6.3-1.1-11.4-3.3-15.3s-5.1-7-8.7-9.2
				c-3.6-2.2-7.7-3.7-12.2-4.5s-9.1-1.2-13.6-1.2h-13.1v-32.3L700.2,294.4 M826.8,340.4c0,7.9,1.1,14.9,3.2,20.8
				c2.1,6,5.1,10.9,8.9,14.9c3.7,3.9,8.3,7,13.3,8.9c5.1,1.9,10.5,2.9,16.3,2.9s10.8-0.7,15-2.2c4.2-1.4,7.8-3.5,10.8-6.1
				s5.4-5.7,7.2-9.3c1.8-3.5,3.2-7.4,4.2-11.5l-19.1-5.5c-0.7,2.6-1.6,5-2.6,7.2s-2.2,4.1-3.6,5.6c-1.4,1.5-3.1,2.7-5,3.6
				s-4.3,1.3-7,1.3c-7,0-12.3-2.8-15.9-8.2c-3.6-5.5-5.4-13-5.4-22.4c0-9.6,1.9-17.3,5.6-22.9c3.7-5.6,9.1-8.4,16-8.4
				c5.5,0,9.6,1.6,12.5,4.9s5.2,8.1,6.8,14.3l19-4.2c-1.2-4.6-2.7-8.8-4.7-12.7c-1.9-3.9-4.5-7.2-7.6-9.9c-3.1-2.8-6.8-4.9-11.1-6.5
				c-4.3-1.5-9.3-2.3-15.1-2.3c-5.9,0-11.5,1-16.5,2.9s-9.5,4.9-13.2,8.8s-6.7,8.9-8.8,14.9C827.8,325.3,826.8,332.3,826.8,340.4
				 M929.1,294.4v91.9h20.2v-75.5h40.4v-16.4H929.1 M1022,340.3c0-4.8,0.5-9.1,1.6-13s2.6-7.2,4.6-9.9c2-2.7,4.4-4.8,7.3-6.2
				c2.9-1.4,6.1-2.1,9.6-2.1c3.6,0,6.8,0.7,9.6,2.1c2.8,1.4,5.3,3.5,7.2,6.2s3.5,6,4.6,9.9s1.6,8.2,1.6,13c0,9.6-2.1,17.1-6.2,22.6
				s-9.8,8.2-16.9,8.2c-7.2,0-12.8-2.7-16.9-8.2C1024.1,357.4,1022,349.9,1022,340.3z M1001.8,340.3c0,8,1.2,15,3.7,21
				c2.4,6,5.7,11,9.7,14.9s8.6,6.9,13.9,8.8c5.2,1.9,10.6,2.9,16.2,2.9c5.5,0,10.9-1,16-2.9c5.2-1.9,9.8-4.9,13.8-8.8
				s7.2-8.9,9.6-14.9s3.6-13,3.6-21c0-8.1-1.2-15.1-3.6-21.1s-5.6-10.9-9.6-14.8s-8.6-6.8-13.8-8.8c-5.1-1.9-10.6-2.9-16-2.9
				c-5.5,0-10.9,1-16.2,2.9s-9.8,4.9-13.8,8.8s-7.2,8.8-9.7,14.8C1003,325.2,1001.8,332.2,1001.8,340.3 M1108.5,329.6v56.7h20.2V330
				c0-6.7,1.3-11.8,4-15.4s7.1-5.3,13.1-5.3c5.9,0,10.2,1.8,12.9,5.3c2.7,3.6,4,8.7,4,15.4v56.3h20v-56.6c0-5.7-0.7-10.8-2.2-15.3
				s-3.7-8.4-6.7-11.6s-6.9-5.6-11.6-7.3c-4.7-1.7-10.2-2.6-16.7-2.6c-6.3,0-11.9,0.9-16.6,2.6s-8.6,4.1-11.6,7.3
				c-3.1,3.2-5.3,7-6.8,11.5C1109.2,318.8,1108.5,323.9,1108.5,329.6 M1227.5,310.8h9.5c5,0,9.2,0.6,12.7,1.8s6.4,2.9,8.6,5.3
				s3.8,5.5,4.8,9.2c1,3.8,1.5,8.3,1.5,13.5c0,9.8-2.1,17-6.4,21.7s-11.4,7.1-21.5,7.1h-9.2V310.8z M1207.5,294.4v91.9h28.2
				c7,0,13.6-0.8,19.6-2.4s11.2-4.2,15.6-7.8c4.4-3.6,7.8-8.3,10.3-14.1c2.5-5.8,3.7-12.9,3.7-21.2c0-8.6-1.3-15.9-3.8-21.8
				s-6-10.7-10.5-14.3c-4.4-3.6-9.6-6.3-15.6-7.9c-5.9-1.6-12.4-2.4-19.3-2.4L1207.5,294.4 M1342.7,315.2l15.3,9.1
				c2.6-5.1,6-8.9,10.3-11.6s9.2-4,14.4-4c4.7,0,8.6,0.9,11.6,2.6c3,1.8,4.4,4.4,4.4,8c0,3.5-1.6,6.2-4.8,8
				c-3.2,1.9-7.8,3.6-13.8,5.3c-4.1,1.2-8.1,2.4-12.1,3.7c-4,1.2-7.6,2.8-10.8,4.9c-3.2,2-5.7,4.6-7.7,7.7s-2.9,7.1-2.9,11.9
				c0,4.3,0.8,8.1,2.4,11.5c1.6,3.3,3.9,6.3,6.8,8.6c2.9,2.4,6.4,4.2,10.4,5.4c4.1,1.2,8.6,1.8,13.5,1.8c4.7,0,9-0.5,12.7-1.5
				c3.8-1,7.1-2.4,10.1-4.1s5.6-3.7,7.8-6c2.2-2.3,4.2-4.6,5.8-7.1l-14-10.7c-2.4,4-5.7,7.1-9.8,9.5c-4.1,2.4-8.4,3.6-12.8,3.6
				c-4.3,0-7.6-0.9-9.8-2.6c-2.3-1.7-3.4-4-3.4-6.8c0-3.7,1.6-6.4,4.9-8.2c3.3-1.8,7.9-3.6,13.9-5.2c4-1.2,8-2.5,12-3.7
				s7.6-2.9,10.7-5c3.2-2.1,5.7-4.7,7.7-7.8c1.9-3.1,2.9-7,2.9-11.7c0-3.7-0.7-7.2-2.2-10.6c-1.5-3.3-3.7-6.3-6.6-8.9
				c-3-2.6-6.8-4.6-11.4-6.1s-10.1-2.3-16.5-2.3c-5,0-9.5,0.6-13.5,1.7c-4.1,1.1-7.7,2.7-10.9,4.7c-3.2,1.9-6,4.3-8.4,7.1
				C1346.5,308.9,1344.4,312,1342.7,315.2 M1461,310.8h9.5c5,0,9.2,0.6,12.8,1.8s6.4,2.9,8.6,5.3s3.8,5.5,4.8,9.2
				c1,3.8,1.5,8.3,1.5,13.5c0,9.8-2.1,17-6.4,21.7s-11.4,7.1-21.4,7.1h-9.2v-58.6H1461z M1441,294.4v91.9h28.2
				c7,0,13.5-0.8,19.5-2.4s11.2-4.2,15.6-7.8c4.4-3.6,7.8-8.3,10.3-14.1c2.5-5.8,3.7-12.9,3.7-21.2c0-8.6-1.3-15.9-3.8-21.8
				s-6-10.7-10.5-14.3c-4.4-3.6-9.6-6.3-15.6-7.9c-5.9-1.6-12.4-2.4-19.3-2.4L1441,294.4 M1540.3,294.4v91.9h20.2v-38l30.8,38h23.6
				l-31.2-35.9l34.4-56h-22.8l-24.7,40.7l-10.1-11.3v-29.4L1540.3,294.4"/>
			<path class="st2" d="M349.1,43.5l-52.8,133.2c0,0,14.3-136.3-163.9-176.7h1524.3c24.2,0,44,19.8,44,44v170.5H430.1L349.1,43.5"/>
			<g>
				<g class="st6">
					<path class="st1" d="M508.7,118.3v4h8.8v8.4c0,4.3,1.2,7.3,3.7,9.2s5.8,2.8,10,2.8h2.5v-4.4c-0.4,0.1-0.9,0.1-1.4,0.1h-1.6
						c-2.5,0-4.6-0.6-6.2-1.7c-1.6-1.1-2.4-3-2.4-5.7v-8.8h11v-4h-11V72.4h-4.5v45.9H508.7z"/>
				</g>
				<g class="st6">
					<path class="st1" d="M540.5,97.4c0,4,0.6,7.6,1.7,10.8c1.1,3.2,2.7,5.9,4.6,8.2c2,2.3,4.3,4,6.9,5.2c2.7,1.2,5.6,1.8,8.7,1.8
						c3,0,5.9-0.6,8.6-1.8c2.7-1.2,5-2.9,7-5.2c2-2.3,3.5-5,4.7-8.2c1.1-3.2,1.7-6.8,1.7-10.8s-0.6-7.6-1.7-10.8
						c-1.1-3.2-2.7-5.9-4.7-8.2c-2-2.3-4.3-4-7-5.2s-5.5-1.8-8.6-1.8s-5.9,0.6-8.6,1.8c-2.7,1.2-5,2.9-7,5.2c-2,2.3-3.5,5-4.6,8.2
						C541.1,89.8,540.5,93.4,540.5,97.4z M545.1,97.5c0-2.9,0.4-5.7,1.1-8.4c0.7-2.7,1.8-5,3.3-7s3.3-3.6,5.5-4.8s4.7-1.8,7.5-1.8
						c2.7,0,5.1,0.6,7.2,1.7c2.1,1.1,4,2.7,5.5,4.6c1.5,2,2.7,4.3,3.5,7s1.2,5.6,1.2,8.8c0,2.9-0.4,5.7-1.1,8.3
						c-0.8,2.6-1.9,5-3.3,7c-1.5,2-3.3,3.6-5.4,4.8c-2.1,1.2-4.6,1.8-7.5,1.8c-2.7,0-5.1-0.6-7.2-1.7c-2.2-1.1-4-2.7-5.5-4.6
						c-1.5-2-2.7-4.3-3.5-7C545.5,103.4,545.1,100.5,545.1,97.5z"/>
				</g>
				<g class="st6">
					<path class="st1" d="M598.9,72.4v49.9h4.5v-10.4h0.2c2.1,3.3,4.8,6,8.1,8.2s7.4,3.3,12.5,3.3h1.3l-0.7-4.3h-1.6
						c-4.2,0-8.1-1.2-11.5-3.6s-6.1-5.8-8.2-10.2V72.4H598.9z"/>
				</g>
				<g class="st6">
					<path class="st1" d="M654.4,107.7c0,6.1,0.8,11.4,2.5,16c1.6,4.6,3.9,8.4,6.8,11.4c2.9,3.1,6.3,5.3,10.2,6.8s8.1,2.2,12.5,2.2
						s8.3-0.5,11.5-1.7c3.2-1.1,6-2.7,8.3-4.7s4.1-4.4,5.5-7.1c1.4-2.7,2.5-5.6,3.2-8.8l-14.6-4.3c-0.6,2-1.2,3.8-2,5.5
						s-1.7,3.1-2.8,4.3c-1.1,1.2-2.4,2.1-3.9,2.8s-3.3,1-5.4,1c-5.4,0-9.4-2.1-12.2-6.3s-4.1-9.9-4.1-17.2c0-7.4,1.4-13.2,4.3-17.6
						c2.8-4.3,6.9-6.5,12.2-6.5c4.2,0,7.4,1.3,9.6,3.8c2.2,2.5,4,6.2,5.2,11l14.5-3.2c-0.9-3.5-2.1-6.8-3.6-9.7
						c-1.5-3-3.4-5.5-5.8-7.6c-2.4-2.1-5.2-3.8-8.5-4.9c-3.3-1.2-7.2-1.8-11.6-1.8c-4.5,0-8.8,0.8-12.7,2.2
						c-3.9,1.5-7.3,3.7-10.1,6.7c-2.9,3-5.1,6.8-6.7,11.4C655.2,96,654.4,101.4,654.4,107.7z"/>
				</g>
				<g class="st6">
					<path class="st1" d="M723.8,97.9c0,4.9,0.8,9.1,2.3,12.4c1.5,3.4,3.6,6.1,6,8.1s5.2,3.5,8.3,4.4s6.2,1.3,9.3,1.3
						c3,0,6.1-0.4,9.2-1.3c3.1-0.9,5.8-2.3,8.3-4.4s4.5-4.8,6-8.1c1.6-3.4,2.3-7.5,2.3-12.4c0-5-0.8-9.1-2.3-12.5
						c-1.6-3.4-3.6-6.1-6-8.2s-5.2-3.6-8.3-4.5s-6.1-1.4-9.2-1.4c-3.1,0-6.1,0.5-9.2,1.4c-3.1,0.9-5.9,2.4-8.4,4.5s-4.5,4.8-6,8.2
						C724.6,88.7,723.8,92.9,723.8,97.9z M739.1,97.8c0-2.1,0.2-4.1,0.6-6c0.4-1.9,1-3.5,1.8-4.9s1.9-2.5,3.3-3.3
						c1.3-0.8,3-1.2,5-1.2c3.6,0,6.2,1.4,7.9,4.3c1.7,2.8,2.6,6.6,2.6,11.2c0,2.1-0.2,4-0.6,5.9c-0.4,1.9-1,3.5-1.9,4.9
						c-0.8,1.4-1.9,2.5-3.3,3.3c-1.3,0.8-2.9,1.2-4.8,1.2c-3.7,0-6.4-1.4-8.1-4.2C740,106,739.1,102.3,739.1,97.8z"/>
				</g>
				<g class="st6">
					<path class="st1" d="M786.4,72.4v50.7h15.3v-7.9c0.7,1,1.7,2,2.7,3c1.1,1,2.4,2,3.8,2.9c1.5,0.9,3.1,1.6,4.9,2.2
						c1.8,0.6,3.8,0.8,6,0.8c2.1,0,4.1-0.3,6-0.9c1.8-0.6,3.4-1.5,4.7-2.6c1.3-1.2,2.3-2.7,3.1-4.5c0.7-1.9,1.1-4.1,1.1-6.7v-37
						h-15.3v32.2c0,2.3-0.5,4-1.4,5.2s-2.4,1.8-4.6,1.8c-2,0-3.9-0.5-5.7-1.4c-1.8-1-3.6-2.2-5.3-3.6V72.4H786.4z"/>
				</g>
				<g class="st6">
					<path class="st1" d="M842.7,112v11.1h8.3v17.3h15.3v-17.3h12.9V112h-12.9V90.1c0-2.7,0.5-4.6,1.4-5.6s2.8-1.5,5.6-1.5
						c0.9,0,1.8,0.1,2.8,0.1c1,0.1,1.7,0.2,2.2,0.5v-11c-0.3-0.1-0.8-0.1-1.6-0.2s-1.6-0.2-2.6-0.2c-1-0.1-2-0.1-3-0.2
						s-2-0.1-2.8-0.1c-3.8,0-6.8,0.3-9.1,1s-4.1,1.6-5.2,2.9c-1.2,1.3-2,2.8-2.4,4.6c-0.4,1.8-0.6,3.9-0.6,6.4V112H842.7z"/>
				</g>
				<g class="st6">
					<path class="st1" d="M889.8,130v12.2h15.5V130H889.8z M889.9,72.4v50.7h15.3V72.4H889.9z"/>
				</g>
				<g class="st6">
					<path class="st1" d="M919.3,72.4v50.7h15.3v-7.9c0.7,1,1.7,2,2.7,3c1.1,1,2.4,2,3.8,2.9c1.5,0.9,3.1,1.6,4.9,2.2
						c1.8,0.6,3.8,0.8,6,0.8c2.1,0,4.1-0.3,6-0.9c1.8-0.6,3.4-1.5,4.7-2.6c1.3-1.2,2.3-2.7,3.1-4.5c0.7-1.9,1.1-4.1,1.1-6.7v-37
						h-15.3v32.2c0,2.3-0.5,4-1.4,5.2s-2.4,1.8-4.6,1.8c-2,0-3.9-0.5-5.7-1.4c-1.8-1-3.6-2.2-5.3-3.6V72.4H919.3z"/>
				</g>
				<g class="st6">
					<path class="st1" d="M979.4,86.1v37h15.3V90.6c0-2.3,0.5-4,1.4-5.2s2.4-1.8,4.6-1.8c2,0,4,0.5,5.8,1.5s3.6,2.2,5.3,3.6v34.4
						h15.3V72.4h-15.3v7.9c-0.8-1-1.7-2-2.8-3c-1.1-1.1-2.3-2-3.8-2.9c-1.4-0.9-3.1-1.6-4.9-2.2c-1.8-0.6-3.8-0.9-6-0.9
						c-2.1,0-4.1,0.3-5.9,0.8c-1.8,0.5-3.4,1.4-4.7,2.6s-2.4,2.7-3.1,4.6C979.7,81.3,979.4,83.5,979.4,86.1z"/>
				</g>
				<g class="st6">
					<path class="st1" d="M1037.7,97.9c0,4.9,0.8,9.1,2.3,12.4c1.5,3.4,3.6,6.1,6,8.1c2.5,2,5.2,3.5,8.3,4.4
						c3.1,0.9,6.2,1.3,9.3,1.3c3,0,6.1-0.4,9.2-1.3s5.8-2.3,8.3-4.4c2.5-2,4.5-4.8,6-8.1c1.6-3.4,2.3-7.5,2.3-12.4
						c0-5-0.8-9.1-2.3-12.5c-1.6-3.4-3.6-6.1-6-8.2c-2.5-2.1-5.2-3.6-8.3-4.5c-3.1-0.9-6.1-1.4-9.2-1.4s-6.1,0.5-9.2,1.4
						s-5.9,2.4-8.4,4.5s-4.5,4.8-6,8.2S1037.7,92.9,1037.7,97.9z M1053,97.8c0-2.1,0.2-4.1,0.6-6s1-3.5,1.9-4.9
						c0.8-1.4,1.9-2.5,3.3-3.3c1.3-0.8,3-1.2,5-1.2c3.6,0,6.2,1.4,7.9,4.3c1.7,2.8,2.6,6.6,2.6,11.2c0,2.1-0.2,4-0.6,5.9
						s-1,3.5-1.9,4.9c-0.8,1.4-1.9,2.5-3.3,3.3c-1.3,0.8-2.9,1.2-4.8,1.2c-3.7,0-6.4-1.4-8.1-4.2C1053.9,106,1053,102.3,1053,97.8z"
						/>
				</g>
				<g class="st6">
					<path class="st1" d="M1099.7,86.1v37h15.3V90.6c0-2.3,0.5-4,1.4-5.2s2.4-1.8,4.6-1.8c2,0,4,0.5,5.8,1.5s3.6,2.2,5.3,3.6v34.4
						h15.3V72.4H1132v7.9c-0.8-1-1.7-2-2.8-3c-1.1-1.1-2.3-2-3.8-2.9c-1.4-0.9-3.1-1.6-4.9-2.2s-3.8-0.9-6-0.9
						c-2.1,0-4.1,0.3-5.9,0.8s-3.4,1.4-4.7,2.6s-2.4,2.7-3.1,4.6C1100.1,81.3,1099.7,83.5,1099.7,86.1z"/>
				</g>
				<g class="st6">
					<path class="st1" d="M1157.1,79.2l6.1,8.4c2.3-2,5-3.6,8.2-4.7s6.3-1.7,9.4-1.7c2.4,0,4.3,0.4,5.8,1.2c1.5,0.8,2.2,2,2.2,3.6
						c0,1.7-0.7,3-2.2,3.8s-3.9,1.5-7.4,2.1c-2.4,0.4-4.8,0.9-7.2,1.5c-2.4,0.6-4.5,1.4-6.4,2.5s-3.4,2.6-4.6,4.4s-1.8,4.2-1.8,7.1
						c0,2.6,0.5,5,1.5,7c1,2.1,2.4,3.8,4.1,5.2c1.8,1.4,3.8,2.5,6.2,3.2c2.4,0.8,5,1.1,7.9,1.1c5.2,0,9.5-0.7,12.9-2
						c3.4-1.4,6.5-3.2,9.3-5.6l-6-8.8c-2.6,1.7-5.1,3.1-7.6,4s-4.9,1.4-7.3,1.4c-2.2,0-3.9-0.4-5.1-1.2c-1.2-0.8-1.8-1.8-1.8-3.2
						c0-1.5,0.7-2.6,2.1-3.4s3.7-1.4,6.9-2c2.5-0.4,4.9-0.9,7.4-1.5s4.7-1.4,6.6-2.5s3.5-2.5,4.7-4.3s1.8-4.1,1.8-6.9
						c0-3-0.6-5.6-1.9-7.8c-1.2-2.2-2.9-3.9-4.9-5.3c-2.1-1.3-4.4-2.3-7.1-3c-2.7-0.6-5.5-0.9-8.4-0.9c-5.6,0-10.3,0.8-14.1,2.2
						C1162.9,75.1,1159.7,77,1157.1,79.2z"/>
				</g>
				<g class="st6">
					<path class="st1" d="M1242.4,72.4v70.3h21.6c5.4,0,10.4-0.6,15-1.8s8.6-3.2,11.9-5.9c3.4-2.8,6-6.4,7.9-10.8
						c1.9-4.4,2.8-9.9,2.8-16.3c0-6.6-1-12.1-2.9-16.7c-1.9-4.5-4.6-8.2-8-11s-7.4-4.8-11.9-6s-9.5-1.9-14.8-1.9L1242.4,72.4
						L1242.4,72.4z M1257.7,85h7.2c3.8,0,7.1,0.4,9.8,1.3c2.7,0.9,4.9,2.3,6.6,4.1c1.7,1.8,2.9,4.2,3.7,7.1
						c0.8,2.9,1.1,6.3,1.1,10.3c0,7.5-1.6,13-4.9,16.6s-8.7,5.4-16.4,5.4h-7.1L1257.7,85L1257.7,85z"/>
				</g>
				<g class="st6">
					<path class="st1" d="M1309.5,97.7c0,4.9,0.8,9.1,2.5,12.5s3.8,6.1,6.3,8.1c2.5,2.1,5.3,3.5,8.3,4.5c3,0.9,5.7,1.4,8.3,1.4
						c2.6,0,5.3-0.4,8-1.2s5.3-2.2,7.5-4.3c2.2-2.1,4.1-5,5.5-8.6c1.5-3.6,2.2-8.3,2.2-14.1v-2.3h-33.5c0.4-4.1,1.7-7,3.8-8.7
						c2.1-1.7,4.8-2.6,8-2.6c3,0,5.9,0.6,8.5,1.8c2.6,1.2,4.8,2.6,6.5,4.1l5.9-9.1c-6-5.2-13.3-7.8-22-7.8c-3.3,0-6.5,0.5-9.6,1.4
						s-5.9,2.4-8.3,4.5s-4.3,4.8-5.8,8.1C1310.2,88.7,1309.5,92.8,1309.5,97.7z M1324.8,102.6h19.7c-0.7,7-4,10.5-9.7,10.5
						c-2.4,0-4.5-0.8-6.3-2.5C1326.6,109.1,1325.4,106.4,1324.8,102.6z"/>
				</g>
				<g class="st6">
					<path class="st1" d="M1369.5,72.4v70.3h15.3V72.4H1369.5z"/>
				</g>
				<g class="st6">
					<path class="st1" d="M1399.2,130v12.2h15.5V130H1399.2z M1399.3,72.4v50.7h15.3V72.4H1399.3z"/>
				</g>
				<g class="st6">
					<path class="st1" d="M1422.6,123.1h15.8l10.6-33.7h0.2l10.7,33.7h14.2l-17.9-50.8h-15.4L1422.6,123.1z"/>
				</g>
				<g class="st6">
					<path class="st1" d="M1476.7,97.7c0,4.9,0.8,9.1,2.5,12.5s3.8,6.1,6.3,8.1c2.5,2.1,5.3,3.5,8.3,4.5c3,0.9,5.7,1.4,8.3,1.4
						c2.6,0,5.3-0.4,8-1.2c2.8-0.8,5.3-2.2,7.5-4.3c2.2-2.1,4.1-5,5.5-8.6c1.5-3.6,2.2-8.3,2.2-14.1v-2.3h-33.5
						c0.4-4.1,1.7-7,3.8-8.7c2.1-1.7,4.8-2.6,8-2.6c3,0,5.9,0.6,8.5,1.8c2.6,1.2,4.8,2.6,6.5,4.1l5.9-9.1c-6-5.2-13.3-7.8-22-7.8
						c-3.3,0-6.5,0.5-9.6,1.4s-5.9,2.4-8.3,4.5s-4.3,4.8-5.8,8.1C1477.4,88.7,1476.7,92.8,1476.7,97.7z M1492,102.6h19.7
						c-0.7,7-4,10.5-9.7,10.5c-2.4,0-4.5-0.8-6.3-2.5C1493.8,109.1,1492.6,106.4,1492,102.6z"/>
				</g>
				<g class="st6">
					<path class="st1" d="M1536.2,72.4v50.7h15.3v-8.2h0.1c0.7,1.1,1.5,2.1,2.5,3.2s2.2,2.1,3.5,3c1.4,0.9,2.9,1.6,4.8,2.2
						s3.9,0.9,6.3,0.9h0.5L1569,111c-0.3,0.1-0.9,0.1-1.8,0.2s-1.6,0.1-2.2,0.1c-3,0-5.7-0.7-7.9-2.1c-2.2-1.4-4.1-3-5.5-4.9V72.4
						H1536.2z"/>
				</g>
				<g class="st6">
					<path class="st1" d="M1573.2,54.9l3.2,11.8c0.7-0.2,1.9-0.5,3.6-0.8c1.7-0.4,3.7-0.5,6-0.5c1.6,0,3,0.3,4,1s1.8,1.8,2.5,3.4
						l1,2.5l-19.4,50.9h15.8l11.1-32.9h0.2l11.2,32.9h14.8l-21.3-56c-0.9-2.2-1.8-4.2-2.9-5.9c-1-1.7-2.3-3.2-3.7-4.4
						c-1.4-1.2-3.1-2.2-5-2.8s-4.1-1-6.7-1c-3.8,0-6.8,0.2-9.1,0.6C1576.3,54.1,1574.5,54.5,1573.2,54.9z"/>
				</g>
			</g>
		</g>
	</g>
</g>
</svg>
